/* XPM */
static char *c2f34b13c33249e1aeb1806a790df04b[] = {
/* columns rows colors chars-per-pixel */
"48 48 157 2 ",
"   c #3C5F1D",
".  c #396414",
"X  c #3F6917",
"o  c #3D641D",
"O  c #3E691C",
"+  c #3D5D21",
"@  c #3B5E28",
"#  c #3E6422",
"$  c #3F6A22",
"%  c #455F1E",
"&  c #42651D",
"*  c #426B1D",
"=  c #4C6F1F",
"-  c #45721E",
";  c #4A741F",
":  c #45791E",
">  c #4B7C1E",
",  c #405D21",
"<  c #426522",
"1  c #486721",
"2  c #436C22",
"3  c #496D23",
"4  c #45672B",
"5  c #456E29",
"6  c #496D28",
"7  c #457323",
"8  c #4A7424",
"9  c #477A25",
"0  c #4C7B25",
"q  c #467229",
"w  c #4C7429",
"e  c #46792A",
"r  c #4D7B2A",
"t  c #517625",
"y  c #517D25",
"u  c #51742A",
"i  c #527D2A",
"p  c #587F2D",
"a  c #567730",
"s  c #537B31",
"d  c #4E8325",
"f  c #4B8D21",
"g  c #4D822A",
"h  c #4E892D",
"j  c #538325",
"k  c #598626",
"l  c #548B26",
"z  c #5A8B26",
"x  c #568329",
"c  c #518428",
"v  c #538428",
"b  c #508628",
"n  c #52842B",
"m  c #53842B",
"M  c #53862A",
"N  c #52872B",
"B  c #548529",
"V  c #578429",
"C  c #54852A",
"Z  c #57852B",
"A  c #54872A",
"S  c #54872B",
"D  c #57862A",
"F  c #56872B",
"G  c #52822C",
"H  c #53832D",
"J  c #52822E",
"K  c #53832F",
"L  c #54812C",
"P  c #55812C",
"I  c #55822D",
"U  c #57832C",
"Y  c #56802E",
"T  c #53852C",
"R  c #51862C",
"E  c #52872D",
"W  c #52842F",
"Q  c #57852D",
"!  c #54862D",
"~  c #55862D",
"^  c #54842B",
"/  c #588528",
"(  c #598629",
")  c #588729",
"_  c #58852A",
"`  c #58842B",
"'  c #59842B",
"]  c #58872B",
"[  c #58862C",
"{  c #58862E",
"}  c #59852C",
"|  c #578B29",
" . c #55882B",
".. c #53882C",
"X. c #538A2D",
"o. c #53882E",
"O. c #54892D",
"+. c #57882D",
"@. c #54892F",
"#. c #56882F",
"$. c #548B2E",
"%. c #578A2E",
"&. c #558A2C",
"*. c #5A892B",
"=. c #5B8A2A",
"-. c #598D28",
";. c #598D29",
":. c #5A8C29",
">. c #5B8E29",
",. c #588C2A",
"<. c #5F8D2A",
"1. c #5C8F2A",
"2. c #5C8E2B",
"3. c #5F8F2B",
"4. c #58892D",
"5. c #598B2C",
"6. c #598A2F",
"7. c #5A8B2F",
"8. c #598C2D",
"9. c #5B8D2C",
"0. c #5B8F2D",
"q. c #5B8D2E",
"w. c #5C8E2D",
"e. c #5E8D2F",
"r. c #5D8F2F",
"t. c #5A8B2C",
"y. c #559126",
"u. c #5D9227",
"i. c #56932B",
"p. c #5D9029",
"a. c #5A912C",
"s. c #5D912D",
"d. c #5E912C",
"f. c #5C902E",
"g. c #5F912E",
"h. c #5C912C",
"j. c #4F8A30",
"k. c #548431",
"l. c #598530",
"z. c #578930",
"x. c #558B31",
"c. c #588930",
"v. c #588E30",
"b. c #5D8E32",
"n. c #5B8C32",
"m. c #5C9232",
"M. c #5A9239",
"N. c #618E2D",
"B. c #639325",
"V. c #61942D",
"C. c #608633",
"Z. c #608F31",
"A. c #608C33",
"S. c #618E33",
"D. c #609430",
"F. c #609432",
"G. c #619232",
/* pixels */
") V ) 8 7 8 m m n y y i r 8 0 0 8 8 5.>.V 2 o o 7 7 7 V | $.m Q K w 0 0 l q.V * o 2 >.h.q.5 3 3 ",
"[ V I 8 7 8 n j m i i 0 0 i t 8 w 8 5.>.) O o # 7 7 7 E m m m m Q r 8 r l >.V & o & q.D.w.q 2 3 ",
"[ Q I 0 7 9 j j d i s i 0 u 6 w 8 8 Q | ) & o # 3 7 7 E o.$.m $.n 8 w w l l 5.2 $ 2 w.Z.) 7 2 7 ",
"8 8 0 r r n q.3.>.2 + o = u 8 n ) K g d j 8 i s w w 0 o.$.o.V $.V 8 w w 3.d.b.2 $ O 0 0 0 I I i ",
"9 8 0 K K V q.p.3.& + o w 6 7 j k n r r y 0 i t 8 8 0 E $.$.$.5.5.8 8 8 d.D.w.O o o w 8 0 ) V j ",
"8 7 8 r i r q.d.,.& o o 6 6 8 d j I g g i w y t 0 y 0 n Q Q z.c.Q 8 8 8 3.d.q.- O 7 w w 8 y j V ",
"8 8 8 2 2 - n j $.m $.K 2 % 1 * O * K V [ 8 8 ; ) ,.V V n n K g n i y i w.v.d.V Z.) o o # y y y ",
"7 8 w 2 2 2 k.E h N l N X % 1 # # 2 c.>.7.2 2 6 z =.,.V V I Q n k.i y y >.v.d.>.3.3.o o # y i i ",
"8 8 7 * 3 2 K E n &.N k.& & & & X * I 5.Q 8 8 : ) 5.V K r K I j K i y y &.&.F.[ 3.[ & o & r i j ",
"Q V Q 0 w 7 8 : 0 m d K 8 7 8 w w 3 < < * r n i * * & $ o $ 8 8 0 [ | l | m $.j 0 I n.7.e.2 2 2 ",
"$.N $.0 e w 8 - 7 n m K w 7 8 w q q + , o g m i & & o o o < 8 8 8 $.X.l ;.&.$.0 i r w.z N.* < < ",
"Q K E 9 8 8 8 3 7 Q V n 0 ; ; 8 7 7 2 < & 0 n i 2 2 2 # # < w 8 8 Q o.N l l $.i i i G.3.b.2 1 & ",
"2 3 3 7 7 2 7 3 8 7.,.5.) ) k V | m N d m 8 8 7 q.w.5.j i y b.V.v.e w 0 l y.$.8 2 8 b.m.m.r w 0 ",
"1 3 2 3 7 2 6 2 7 7.>.w.,.z z 5.,.j l f N 8 8 9 >.d.m.V V n m.d.m.7 2 8 ;.y.5.8 8 8 b.d.m.0 8 8 ",
"* 2 2 2 2 2 6 6 8 [ 5.| ,.,.,.m V Q Q E E 0 7 7 >.d.Z.j y j b.h.m.9 7 8 Q q.Q 8 * 7 b.D.w.0 8 e ",
"y y i 8 - 7 & o < 7 : : V ,.5.9 7 0 O < 2 g d K 5.7.U * & 2 k.$.l | &.E 0 8 0 g m r r 0 > 0 8 w ",
"y y 0 8 8 3 < < o 7 7 7 $.l | 7 8 w o   X k.E g [ ,.' * < X n N N ;.-.| 0 7 7 m g m 0 0 9 9 0 8 ",
"0 d y 8 7 2 2 o $ * 7 7 E j V r 9 8 2 o * r E o.l.) p 2 2 * E m o.V | Q 8 w 8 n n n 0 r 8 0 8 w ",
"i.m.v.9 7 8 w 8 w * & & i y 0 r j V [ c.$.m d g 7 8 8 # # O r g 0 - - 7 2 2 2 8 7 8 2 2 & 2 2 1 ",
"i.i.v.0 7 8 e 8 8 & & 2 8 8 0 Q j j q.d.q.j j m 7 7 q $ 2 2 r m n * O 2 2 2 2 7 7 w o < < < < < ",
"m.h.$.0 7 7 8 8 8 & * 2 u a 8 j j j -.l ;.j V Q w q 2 2 X * r m r - 7 3 2 & 2 7 0 e # < < 2 2 2 ",
": : 0 g K r 8 7 7 8 i w 1 < * ,.w.3.V.V.D.5.[ Q * 2 7 i V r 8 - 0 0 V i 0 7 0 E o.k.2 2 2 2 2 3 ",
"8 8 9 g g r 7 2 7 r r 0 o   & ,.b.3.p.V.m.5.[ [ 7 2 2 y j i 8 7 7 i ) V 0 e 0 x.&.c.7 2 2 2 2 2 ",
"8 8 7 g g n 7 7 8 r 0 i 2 < 2 ,.q.>.p.V.G.5.) ) 7 3 2 j j i w 3 w I k j 9 r 9 N N $.2 2 6 3 3 3 ",
"# # o r r 0 x.o.X.m $.$.| | ,.) l.V >.p.q.0 w u 7 7 e e e r o < * c.m.&.N j.k.* 1 & ) =.V n i y ",
"  o o r r 0 v.v.v.V j j &.m.q.V V k p.d.q.0 8 w 7 7 7 9 0 r 2 # 2 S.D.p.l l Q X o & V 7.[ V V i ",
"& & O e g g Q c.k.c.V l ;.;.| V V ) 3.G.b.y 0 8 q 7 0 8 0 8 2 O 2 n.Z.=.| V Q O . * U [ [ y i i ",
"6 3 8 I 5.V * X * Q ;.;.l d N >.w.| k V Q V Q $.w w 8 * 2 2 r n r & & 2 2 < * m [ i 8 7 8 0 0 7 ",
"u w 8 V ,.[ &   X 5.a.i.l d V ,.d.>.V V Q 5.$.$.8 0 8 2 # $ r d d o < # # < O l k V 8 q 3 8 8 0 ",
"3 7 0 j j U & # * V l l g K Q w.>.q.$.$.V $.N m > 0 8 2 2 q r K 0 2 & * & # 2 d V j 8 7 w w 8 8 ",
"5.[ [ j y i 8 w e $.l m 7 2 * j ,.) d 0 0 5.b.S.3.5.5.m g r 7 2 7 I ) V j K i * o * 0 0 0 2 3 3 ",
"l l 5.y i y 0 0 r V l Q 2 # 2 [ ) ) 0 0 y w.A.n.>.>.;.l l m 7 5 6 [ >.l.l.N r < @ o 0 > 0 2 3 3 ",
"$.k k > i i r y r m | n 2 < 2 V l.V y j 0 n.n.7.k w.$.m m d 8 7 7 l.C.I V j n < o & 0 y r 8 2 7 ",
"O * 7 2 2 7 Q ,.5.j j n & o o 2 6 7 [ ,.V 0 0 0 0 r 8 X o & 8 0 0 * & * m g Q i r 0 0 0 0 8 u t ",
"$ 2 2 2 # * b.p.w.d 0 i & & < 2 3 3 n.,.| 0 8 r e w w 1 , < r 0 i o o X E h g > g g 0 y y 8 t t ",
"* * O 2 $ 7 l.| 5.j d n & & < 3 = ; V k.Q r 8 w e e 8 & & & 8 0 8 2 2 * g E z.d 0 i 0 0 0 0 y 0 ",
"8 8 8 8 7 2 2 & 7 0 d m w w w V j j V k.K * o o * 7 7 7 7 - & $ 2 i I I n d r & 2 2 & o & i g d ",
"w w 8 7 8 8 o 2 $ g d g r s 0 j n j n Q I . o < * 7 $ 7 8 7 2 # O [ 5.Q 0 y i 2 2 1 <   X r g g ",
"e r 0 7 8 8 o < 2 k.d d 0 i 0 j m m n i i * X O * 2 7 7 7 2 2 2 * I $.m i i r - * 2 o # & i g g ",
"l | V Q I i 2 o X K m N m V V $.l Q 8 3 8 I E m r 0 0 * * 3 p V V r r 0 0 7 0 j $.K 2 2 2 u y 0 ",
"q.l >.Q k.i X o X k.k.m k k | h &.k.* 2 2 k.$.m 0 0 i 2 < * V ) [ 0 ; 9 8 8 9 $.&.k.2 < & u i r ",
"n.[ [ I [ i * o * i E n y y V x.&.Q 8 3 - m &.| 0 y 0 2 2 3 i p p i 0 i 8 8 9 $.| n 7 2 * 0 0 r ",
"< < 2 7.N.7.* < 2 5 7 7 2 2 & 7 : 0 c.b.b.h.h.;.i j j 8 8 6 * < 2 i i i 7 7 - $.l v.h k.m &.&.$.",
", # o N.B.N.2 4 & * 2 2 & X X 0 0 0 v.m.h.a.h.h.I j j 7 7 w & , & i V i * * 7 v.k 5.$.x.&.a.&.&.",
"X 2 * 3.p.5.2 2 6 2 6 6 3 3 2 0 0 0 z.v.&.m.q.q.n j V 7 7 8 & & & p V n - 2 - m ,.5.V Q o.$.$.$.",
"w.b.c.0 0 0 8 8 7 * * * l.v.q.5.c.Q g g 9 0 9 0 v.v.5.X o & 3 u 8 n.>.| 0 e 9 0 0 0 ; 8 8 8 8 7 ",
"h.d.G.8 w 8 8 8 8 2 3 3 b.;.m.v.q.$.r r 0 r 8 r ;.q.v.O o o 8 8 0 q.a.;.0 e 0 > 0 0 8 8 8 8 7 7 ",
"M.a.3.y w i 7 8 8 3 1 * m.y.h.$.>.&.9 e r i 8 r y.a.v.o # o r 7 9 >.u.l 0 7 0 0 r 0 8 8 8 8 w w "
};
