/* XPM */
static char *_799db595f5e49988292885559e0d79a[] = {
/* columns rows colors chars-per-pixel */
"48 48 162 2 ",
"   c None",
".  c #4F1300",
"X  c #521B00",
"o  c #572C14",
"O  c #5B2E14",
"+  c #5E3015",
"@  c #5F341B",
"#  c #613216",
"$  c #60361E",
"%  c #6A381A",
"&  c #7F3C11",
"*  c #813B09",
"=  c #823E10",
"-  c #844012",
";  c #8A4517",
":  c #86441D",
">  c #89461D",
",  c #864621",
"<  c #884721",
"1  c #8B4923",
"2  c #8D4D29",
"3  c #924D25",
"4  c #8E512F",
"5  c #92522D",
"6  c #8F5130",
"7  c #945633",
"8  c #985732",
"9  c #955837",
"0  c #9B5B36",
"q  c #965A39",
"w  c #9A5B39",
"e  c #A55826",
"r  c #A55B2E",
"t  c #A85D2F",
"y  c #A65D31",
"u  c #A95E31",
"i  c #9D603D",
"p  c #AB6134",
"a  c #AD653A",
"s  c #B26434",
"d  c #B0673C",
"f  c #B1693D",
"g  c #815F49",
"h  c #82604A",
"j  c #976243",
"k  c #AE6942",
"l  c #A16948",
"z  c #B26C43",
"x  c #BC6F41",
"c  c #BE7142",
"v  c #C57544",
"b  c #C87746",
"n  c #C87846",
"m  c #C3794D",
"M  c #C97A4A",
"N  c #C27E54",
"B  c #CA7F51",
"V  c #C58057",
"C  c #CB8053",
"Z  c #C68359",
"A  c #CA865B",
"S  c #CE895E",
"D  c #D18B5F",
"F  c #CE8B60",
"G  c #D28E62",
"H  c #D49166",
"J  c #D59165",
"K  c #D49065",
"L  c #DB9466",
"P  c #D0936E",
"I  c #D3936A",
"U  c #D09570",
"Y  c #D19773",
"T  c #D29773",
"R  c #D59670",
"E  c #D39873",
"W  c #D79973",
"Q  c #D79972",
"!  c #D69871",
"~  c #D29874",
"^  c #D49B77",
"/  c #D59A75",
"(  c #D89B75",
")  c #D89B76",
"_  c #D89C76",
"`  c #D89C77",
"'  c #D99D77",
"]  c #D89D77",
"[  c #D99C77",
"{  c #D79D7A",
"}  c #D99D78",
"|  c #D89D78",
" . c #D99E79",
".. c #DA9E79",
"X. c #DB9F79",
"o. c #D99F7A",
"O. c #DA9F7A",
"+. c #DA9F7B",
"@. c #D99E79",
"#. c #DAA07B",
"$. c #DBA07B",
"%. c #DCA07B",
"&. c #DBA17C",
"*. c #DBA17D",
"=. c #DAA17D",
"-. c #DBA27D",
";. c #DBA27E",
":. c #DBA37F",
">. c #DCA17C",
",. c #DCA37F",
"<. c #DCA27D",
"1. c #DBA380",
"2. c #DCA480",
"3. c #DCA683",
"4. c #DDA684",
"5. c #DDA580",
"6. c #D6A885",
"7. c #DBAB87",
"8. c #DDAD89",
"9. c #DFB69A",
"0. c #E2A883",
"q. c #E3B38D",
"w. c #E8B68F",
"e. c #E3B697",
"r. c #E4B591",
"t. c #EFBD96",
"y. c #E3B698",
"u. c #E1B79B",
"i. c #E0B698",
"p. c #E1B79A",
"a. c #E4B99B",
"s. c #E4B99C",
"d. c #E5BB9D",
"f. c #E5BA9D",
"g. c #E5BB9E",
"h. c #E5BC9E",
"j. c #E6BC9F",
"k. c #E6BC9E",
"l. c #E4BA9D",
"z. c #E8BD9F",
"x. c #F0BE96",
"c. c #E6BDA0",
"v. c #E6BEA0",
"b. c #E6BEA1",
"n. c #E7BEA1",
"m. c #E7BFA2",
"M. c #E7BFA3",
"N. c #E6BEA1",
"B. c #E8BFA2",
"V. c #E8BFA2",
"C. c #E7C0A3",
"Z. c #E7C0A3",
"A. c #E8C0A3",
"S. c #E8C0A4",
"D. c #E8C1A4",
"F. c #E9C1A4",
"G. c #ECCAA9",
"H. c #F0C7A9",
"J. c #F1CEAC",
"K. c #F3D0AE",
"L. c #F6D2B0",
"P. c #FEDAB6",
/* pixels */
"                                                                                                ",
"                                                                                                ",
"                                                                                                ",
"                              < < < 1 1 1 1 1 1 < < <                                           ",
"                              < 3 1 1 1 1 1 1 1 1 1 <                                           ",
"                              < 1 < 1 1 1 1 1 1 1 < <                                           ",
"                        < < 1 r y r V A A U U U m v v 3 : 1 < < <                               ",
"                        < 3 1 y p u S J G X.>.>.C n M 5 1 1 1 1 <                               ",
"                        < 1 < r u t A G G ` X.X.B b b 2 : , , < <                               ",
"                        r p y V S A W ` ) A B C M n n c c c u y y 1 , 1                         ",
"                        u s u S J G ` &.X.M v b b n n n n n p u u 1 1 <                         ",
"                        p s u S G G ) X.X.B n M M M M M M M a p p 2 1 1                         ",
"                  < < : x n b D G G C M M D G D W ) ` u.s.a.u.u.u.^ E U 7 : 1 < < <             ",
"                  < 3 < c M n D G G M v b G G G X.#.&.b.D.A.D.D.B.>.%.X.0 > 1 1 1 <             ",
"                  < 1 : x M b D G G M b M D G G ` X.#.h.b.b.b.b.b.&.X.X.7 : 1 < < <             ",
"                  < 1 : N G S G G G M b M W X.` e.s.s.b.b.b.b.b.b.&.X.X.A A Z 2 : , # O O       ",
"                  < 1 : Z J G G G G M b M ) #.X.s.D.b.b.b.b.b.C.b.&.X.X.J K F 2 : , # + O       ",
"                  1 1 : V G S G G G M M M ` &.#.s.C.b.b.b.b.b.b.h.&.X.X.G G S 2 : , # O O       ",
"                  1 1 < 2 5 5 v M M R X.` a.b.h.b.b.b.b.b.b.4.&.&.X.X.X.H G S 2 : , # O O       ",
"                  , 1 , : : : v M b W &.#.h.D.b.b.b.b.b.b.b.&.` X.X.X.X.H G S 2 : , + O O       ",
"                  1 2 1 1 1 1 v M b W #.X.s.C.b.b.b.b.b.b.b.2.X.X.X.X.X.H G S 2 : , # O O       ",
"            1 1 : N A V P ~ U z p p S J H s.C.b.b.b.b.2.&.1.X.X.X.X.X.X.G G S 2 : , # O O       ",
"            < 3 < Z G S ` >.>.z r u A G G s.D.A.A.A.B.>.X.X.X.X.X.X.X.X.H G F 2 : , + O O       ",
"            1 1 : V D A W X.X.z r y A G G u.s.l.l.l.l.o.^ ` X.X.X.X.X.X.G G A 2 : , # O O       ",
"            < 1 : V G S S G F 8 > < Z K G z k k q 9 9 5 4 5 A J G G G G f p p 1 < , # O O       ",
"            < 1 : V G S S S S 8 : : A J G p e r ; = - : : : A K G G G G a t y 1 < , # + O       ",
"            < 1 : V G S S S S 8 : : Z J G z a a 7 4 4 2 2 2 A G F G G G a y y 1 , , # O O       ",
"            < 1 : V D S z p a             u.z.u.u.u.9.o.E ~ i 2 5 p a a 3 1 1 # + +             ",
"            < 3 : V D S f r u             D.H.D.D.D.A.2.#.&.9 & < t u y 1 , , O o o             ",
"            < 1 : V D S f r u             h.F.h.b.b.b.&.` X.w > 2 y y y 1 < , O O O             ",
"            1 3 , V D D 0 : 1             2.0.2.s.C.b.I G G a t y 1 1 1 < < , + O O             ",
"            : > : Z G G 0 : 1             >.0.>.s.D.b.I G G d u u 1 , < < 1 , + + O             ",
"            6 8 4 V G S 0 : 1             >.0.>.a.b.s.H S G a t y 1 , , , , : + O O             ",
"            8.w.8.                  p u p o.2.&.I H H f p a 3 1 1 # O O + + +                   ",
"            q.t.q.                  u s p o.2.>.J G G a t u 1 , , + O O O O O                   ",
"            r.t.r.                  a f a ^ >.&.G S S p t y 1 : : + O O O O O                   ",
"            G.L.G.                  G L G G G G f u p 1 < 1 # O O                               ",
"            G.P.J.                  G L K G G G f t u 1 < < # O O                               ",
"            G.G.G.                  F G S S S S a r y 1 , , # o O                               ",
"                              q.q.q.l > 2 2 2 2 % + # + O +                                     ",
"                              q.x.r.l * 1 > > > # O + O O O                                     ",
"                              6.7.6.j & , , , , # O + O O O                                     ",
"                        G.K.G.g X $ O O O + O O                                                 ",
"                        G.P.J.h . @ + + + + + +                                                 ",
"                        G.G.G.g X @ O O O O O O                                                 ",
"                                                                                                ",
"                                                                                                ",
"                                                                                                "
};
