/* XPM */
static char *_6304e3eb81242e091ea46c7803c3090[] = {
/* columns rows colors chars-per-pixel */
"48 48 248 2 ",
"   c None",
".  c #020202",
"X  c #0C0100",
"o  c #03030C",
"O  c #080C02",
"+  c #170100",
"@  c #1A1A1B",
"#  c #0C100F",
"$  c #270800",
"%  c #360A05",
"&  c #371601",
"*  c #311D14",
"=  c #252419",
"-  c #3B2B0B",
";  c #00092D",
":  c #0F172B",
">  c #0A272F",
",  c #2A2A27",
"<  c #393429",
"1  c #273839",
"2  c #363938",
"3  c #2A3B2E",
"4  c #4F3211",
"5  c #6E3716",
"6  c #503A32",
"7  c #6F3C24",
"8  c #411D0F",
"9  c #344B3D",
"0  c #644E1C",
"q  c #724D14",
"w  c #72581D",
"e  c #55452E",
"r  c #6C5728",
"t  c #764F2D",
"y  c #7E6430",
"u  c #5B4D10",
"i  c #050F50",
"p  c #1A3C4D",
"a  c #110E70",
"s  c #142E75",
"d  c #242E6C",
"f  c #165857",
"g  c #135253",
"h  c #314E53",
"j  c #19675C",
"k  c #2C5171",
"l  c #35746B",
"z  c #13546B",
"x  c #5B5D5B",
"c  c #4A514F",
"v  c #68564D",
"b  c #746D4F",
"n  c #485B69",
"m  c #446777",
"M  c #53666E",
"N  c #676A64",
"B  c #687976",
"V  c #7B797B",
"C  c #71746F",
"Z  c #5D625C",
"A  c #885A36",
"S  c #82652D",
"D  c #926E3C",
"F  c #A76B3D",
"G  c #B07436",
"H  c #C4793D",
"J  c #897844",
"K  c #97735B",
"L  c #906D4D",
"P  c #A36847",
"I  c #A87449",
"U  c #B47548",
"Y  c #AA6D53",
"T  c #AA7658",
"R  c #B97957",
"E  c #857973",
"W  c #A77866",
"Q  c #AE7371",
"!  c #9B5E4D",
"~  c #C77947",
"^  c #C37B54",
"/  c #C97F66",
"(  c #118375",
")  c #268477",
"_  c #4F8979",
"`  c #7E8579",
"'  c #9A833F",
"]  c #998848",
"[  c #9D944E",
"{  c #BC8459",
"}  c #B8844B",
"|  c #908673",
" . c #A58A79",
".. c #AA947B",
"X. c #B28068",
"o. c #C98447",
"O. c #C3835A",
"+. c #D48D5E",
"@. c #C08267",
"#. c #C49676",
"$. c #D09765",
"%. c #C7A575",
"&. c #CEB87E",
"*. c #181685",
"=. c #281B92",
"-. c #332E97",
";. c #2E3291",
":. c #332AA4",
">. c #1D2A8A",
",. c #15538C",
"<. c #324897",
"1. c #2F4F8C",
"2. c #316B90",
"3. c #384DA6",
"4. c #0779A9",
"5. c #1478AA",
"6. c #127FBA",
"7. c #2876A6",
"8. c #2E6EB0",
"9. c #4F6C87",
"0. c #486CBA",
"q. c #6179A6",
"w. c #6277C8",
"e. c #068A86",
"r. c #179688",
"t. c #14918C",
"y. c #298F8F",
"u. c #2AA297",
"i. c #0982A9",
"p. c #138FB3",
"a. c #2F9DAB",
"s. c #0EB9AC",
"d. c #17BAAA",
"f. c #18A5BA",
"g. c #0FBBB4",
"h. c #0DBCBB",
"j. c #13BBB4",
"k. c #1AB5BB",
"l. c #14BABA",
"z. c #18B7BA",
"x. c #11A6A9",
"c. c #2BABAA",
"v. c #27B6B7",
"b. c #3AB7BB",
"n. c #35ABAE",
"m. c #10B19F",
"M. c #79948F",
"N. c #70A799",
"B. c #4787B4",
"V. c #6F88B3",
"C. c #49B0B0",
"Z. c #6DAEB3",
"A. c #499883",
"S. c #0EC1BA",
"D. c #33C2BE",
"F. c #4CC6B9",
"G. c #2698D2",
"H. c #3292CA",
"J. c #1CADC3",
"K. c #0EBCC3",
"L. c #1BB6C3",
"P. c #19BAC2",
"I. c #28B7C4",
"U. c #36B6CF",
"Y. c #1E8ECD",
"T. c #47A5CC",
"R. c #4DAAD6",
"E. c #69ADD6",
"W. c #75BAE9",
"Q. c #609AD6",
"!. c #1DC3C3",
"~. c #58C7CB",
"^. c #5DC5D5",
"/. c #58D6D1",
"(. c #69D8D6",
"). c #71CFC8",
"_. c #77E3D6",
"`. c #58D7E4",
"'. c #71DAE2",
"]. c #6BE5EF",
"[. c #59E6DD",
"{. c #848482",
"}. c #938B86",
"|. c #959787",
" X c #8B9287",
".X c #AB998A",
"XX c #8BA39B",
"oX c #A7A79A",
"OX c #BCB89B",
"+X c #B5AB91",
"@X c #9D9BA1",
"#X c #97B1B1",
"$X c #B7BBB5",
"%X c #B0B2A8",
"&X c #A09BA2",
"*X c #D5998C",
"=X c #DBBC96",
"-X c #CDB08E",
";X c #EABB8A",
":X c #ECBC97",
">X c #EEB895",
",X c #D2B4A4",
"<X c #89CCAE",
"1X c #B6CDAE",
"2X c #F6CA99",
"3X c #ECC591",
"4X c #D6C5B8",
"5X c #D4D1B8",
"6X c #C3C3B1",
"7X c #F9CAA4",
"8X c #F8D7AA",
"9X c #FBDBB8",
"0X c #E8D3B5",
"qX c #FFE4B6",
"wX c #F6ECB8",
"eX c #DCC196",
"rX c #8AB2CA",
"tX c #B3BFC3",
"yX c #95B1EC",
"uX c #C3BEC3",
"iX c #99C9DB",
"pX c #86D7D4",
"aX c #93CDD4",
"sX c #A4C8DA",
"dX c #B6CDD5",
"fX c #A7D6D6",
"gX c #B1CFCF",
"hX c #AEE2D7",
"jX c #87C6E5",
"kX c #93CEE9",
"lX c #A9D2E9",
"zX c #87E7DD",
"xX c #CDCEC9",
"cX c #D5D8CD",
"vX c #DAD9D7",
"bX c #CFD0CB",
"nX c #E8D8CB",
"mX c #D8E5CC",
"MX c #FBE7CD",
"NX c #FFF4DA",
"BX c #EBEFD8",
"VX c #CBEBE7",
"CX c #D9F6F8",
"ZX c #C6E7ED",
"AX c #FFFCE6",
"SX c #EBFDFD",
"DX c #F4FBF7",
"FX c #E9EAE7",
/* pixels */
"                                                                          FXDXAXwX&.5X          ",
"                                oX%XnXFX                              vXXX3 |.OX[ D . FX        ",
"                              b 4 + $ % v }.%X6X                  xX@XC oXoXb b [ ] . tX        ",
"                          ..e L t 8 7 4 $ + X + $ 6 V @X      6X XV @XxXcX5X,X+X[ J . V         ",
"                        b 0 D S A 5 F U D D A t 5 % + X       }.oXxXvX$XoXxXnX4X4X}.{.x . %X    ",
"                      L r D w q I U U U R { R R T K L +       uXvX$X XN v E .X4XcXvXuXx # N     ",
"                      ..r S y L P / *X*X! Q R R R R R %     V C | Z 2 < .X..J r +X$XbXV 2 .     ",
"                      ..t q %.8X#.Y >X,X% Q / R ! Y $.D         {.x     ,XJ ' u < c xXoX2 .     ",
"                       .t q %.qX3XT P T @.P P Y t W 7XT                 -Xw S 4 . , %X6Xe . E   ",
"                      .X0 4 &.qX2XP { F 5 Y P D W Q Q L                 0 ] 0 -   V | cXN @ ,   ",
"              SXSX    | & -X8XqX7XI { Y $ t T I t 5 ^ P 4X              r S 4 X     . vX@Xo .   ",
"            VXfXhXhXVX#X| mXmXOXK 4 A t 8 % % 4 & 7 ^ ! 4X            4 J 0 +       .  XV o     ",
"          CXfXpX)._.).pXpX).N.g > 1 = * * * & & $ 4 K L 4X            r r 4 X           . .     ",
"        SXhXzXzX(.~.(.(.'.~.(.C.y.z l 9 6 6 6 < 3 9 = < $XvX        - y r X                     ",
"        VXaXzX_.~./.~.~.~.^.(.n.x.v.u.A.Z v c h j j f h B %X1X      r w e X                     ",
"      DXgX<X_.F.( r.u.u.n.b.C.b.m.g.m.n.N.M.N.y.u.e.y.g M.OX6X5XnX-XJ 4 X .X                    ",
"      BXmX<X).r.t.r.t.e.e.e.b.D.s.s.d.m.c.c.c.c.k.v.b.f |.eX-X-X=X9X9X=X| -X                    ",
"    NX0XwX1X_ ) ) ) ( r.e.x.`.v.j.j.d.s.h.h.l.z.g.P.c.f +X;X;X;X:X>X:X#.-X-X-X                  ",
"  AXMX9XqX=Xb ` ` C _ l y.b.`.I.k.P.l.j.K.K.l.l.h.z.b.g .X:X>X;X2X;X;XU F F U T K               ",
"  MX9X9X2XR W W W W C XXC.~.`.I.J.L.z.l.K.K.l.h.S.s.b.    :X:X7X2X2X$.G o.~ O.T                 ",
"NX9X9X8X$.G O.U O.P  .  E.(.`.I.J.L.L.z.L.P.j.j.h.z.n.        0X8X2X} U H ~ ~ P                 ",
"MX9X9X;XG o.~ ^ ^ P     ).`.`.I.k.P.z.z.L.k.j.j.h.k.a.      +XK 0X=XI I U ^ U T                 ",
"NX9X8XO.o.H ~ ^ P -X    pX/.[.d.g.h.h.j.z.z.j.j.!.k.a.        . - e K       W                   ",
"AXMX%.{ +.o.+.R #.      '.[.[.d.s.S.j.j.z.z.j.j.g.I.a.                                          ",
"  nX-X#.@.O.R W MX      kX]./.v.s.h.j.k.I.I.v.z.P.k.n.                                          ",
"              0X        jX^.].v.k.!.x.i.f.f.f.I.J.U.a.                                          ",
"                        V.7.T.U.f.p.i.4.4.4.i.5.i.p.y.                                          ",
"                        q.8.7.H.Y.i.i.6.4.5.5.7.7.7.2.                                          ",
"                        V.1.0.H.Y.p.G.Y.Y.p.,.,.2.k k                                           ",
"                          1.3.8.H.Y.G.G.G.H.,.i ; 9.                                            ",
"                          s 0.<.B.H.G.G.H.T.B.z i k                                             ",
"                          1.<.3.<.Q.H.R.T.T.E.B.; 9.                                            ",
"                          s <.3.;.0.E.T.T.T.E.E.rXSX                                            ",
"                        k s <.-.-.;.Q.W.T.R.E.E.sXDX                                            ",
"                        2.,.>.-.:.*.w.W.'.W.jXjXrXZX                                            ",
"                      rX7.,.s -.=.*.>.yXkXjXjXaXiXsXCX                                          ",
"                      Z.2.2.i ;.:.:.a w.lXiXiXiXlXiXlX                                          ",
"                      #X9.; ; i *.=.=.a yXsXfXfXiXiXsXCX                                        ",
"                                -.*.-.i V.ZXfXfXlXsXsXsX                                        ",
"                                  i ;.d m dXZXdXsXsXsX#XbX                                      ",
"                                  i 1.1.k M.dXdXdXgXtX#X#X                                      ",
"                                    p m m h h c M N B B B #X                                    ",
"                                    p m m h o o . . . # .                                       ",
"                                    M.h n > : @ @ = @ # 1                                       ",
"                                      1 n o @ # # O , . #X                                      ",
"                                      B o : @ , , , 2 .                                         ",
"                                        o 1 . . . O . N                                         ",
"                                                cXxX$X                                          "
};
