/* XPM */
static char *_26efbc149444ecf9cf316f1af191a43[] = {
/* columns rows colors chars-per-pixel */
"48 48 241 2 ",
"   c None",
".  c black",
"X  c #0E0504",
"o  c #160602",
"O  c #1B1406",
"+  c #151413",
"@  c #1C1C1C",
"#  c #181717",
"$  c #00001C",
"%  c #290500",
"&  c #380C00",
"*  c #3B1705",
"=  c #29190F",
"-  c #352415",
";  c #0B0032",
":  c #1B2123",
">  c #132326",
",  c #292727",
"<  c #353332",
"1  c #3B3C3B",
"2  c #363129",
"3  c #431B04",
"4  c #4E2505",
"5  c #532907",
"6  c #483604",
"7  c #542F15",
"8  c #7D3D00",
"9  c #6B3B1B",
"0  c #513D29",
"q  c #633821",
"w  c #5B470D",
"e  c #684B06",
"r  c #785C08",
"t  c #704F0E",
"y  c #7C640F",
"u  c #4A4232",
"i  c #7A5926",
"p  c #714629",
"a  c #7F6439",
"s  c #03004A",
"d  c #042446",
"f  c #253542",
"g  c #182F72",
"h  c #201872",
"j  c #743679",
"k  c #0E424C",
"l  c #2D4347",
"z  c #34545B",
"x  c #2C5153",
"c  c #005D6A",
"v  c #0B5275",
"b  c #37566D",
"n  c #006F77",
"m  c #3E6268",
"M  c #4A4A48",
"N  c #585756",
"B  c #4F5551",
"V  c #605E5D",
"C  c #42666E",
"Z  c #536C6E",
"A  c #676666",
"S  c #787774",
"D  c #607E7E",
"F  c #405975",
"G  c #987717",
"H  c #89650B",
"J  c #875635",
"K  c #985C37",
"L  c #814C2C",
"P  c #A05522",
"I  c #82622D",
"U  c #896F20",
"Y  c #8A6932",
"T  c #876733",
"R  c #8A7127",
"E  c #A9693E",
"W  c #B76D3B",
"Q  c #BE672B",
"!  c #A1520B",
"~  c #C16E36",
"^  c #C16D31",
"/  c #877855",
"(  c #8F6E4F",
")  c #AB6B46",
"_  c #A96945",
"`  c #B86D46",
"'  c #BD7144",
"]  c #B6724C",
"[  c #BC754C",
"{  c #BB764B",
"}  c #BD7955",
"|  c #A57346",
" . c #A05C65",
".. c #8F7D72",
"X. c #A96E6E",
"o. c #925673",
"O. c #C1764A",
"+. c #C47A4D",
"@. c #C87B48",
"#. c #C37C52",
"$. c #C87E54",
"%. c #738576",
"&. c #4E897F",
"*. c #A58818",
"=. c #A88E39",
"-. c #BFA43A",
";. c #968425",
":. c #B3926E",
">. c #8D8062",
",. c #CC8152",
"<. c #C98159",
"1. c #D38756",
"2. c #DB925E",
"3. c #CC814E",
"4. c #CE9770",
"5. c #C4AA7D",
"6. c #EAB17C",
"7. c #EDAA71",
"8. c #E1935D",
"9. c #030095",
"0. c #2B1B9D",
"q. c #271895",
"w. c #28009A",
"e. c #2D239A",
"r. c #2D3795",
"t. c #2C1AA3",
"y. c #312AA1",
"u. c #3335A3",
"i. c #2D20A1",
"p. c #125B8B",
"a. c #116C91",
"s. c #32718D",
"d. c #3648A8",
"f. c #3A55A8",
"g. c #3F5CB9",
"h. c #1275B2",
"j. c #1479B7",
"k. c #0D74AE",
"l. c #3A72B7",
"z. c #33539A",
"x. c #456BB4",
"c. c #4875B5",
"v. c #90749F",
"b. c #028D86",
"n. c #05928B",
"m. c #14918A",
"M. c #0D8E90",
"N. c #289190",
"B. c #36A19A",
"V. c #1293B1",
"C. c #11ABB2",
"Z. c #0EBAB9",
"A. c #01B9B8",
"S. c #13BBBA",
"D. c #1CBBBB",
"F. c #14B6B5",
"G. c #0AABAB",
"H. c #24BAB9",
"J. c #29BDBE",
"K. c #37ABAC",
"L. c #259DBA",
"P. c #6D8F8D",
"I. c #7188B2",
"U. c #74AFB0",
"Y. c #4A9EAB",
"T. c #16C2BE",
"R. c #1C93C8",
"E. c #2A99CA",
"W. c #369CCB",
"Q. c #3CA2D0",
"!. c #49A7C8",
"~. c #4BA6D1",
"^. c #57AAD2",
"/. c #4BB7CD",
"(. c #7ABADC",
"). c #60B2D8",
"_. c #54ABD7",
"`. c #29C2C2",
"'. c #58CBC7",
"]. c #5ACAD6",
"[. c #5BD3D4",
"{. c #6AD6CD",
"}. c #7AC0DF",
"|. c #6BD2CD",
" X c #79E3DB",
".X c #5DDAE2",
"XX c #51D9E2",
"oX c #61DDE5",
"OX c #77C1E4",
"+X c #67E3EB",
"@X c #6CEDF7",
"#X c #8D8C8B",
"$X c #888684",
"%X c #979694",
"&X c #8F9286",
"*X c #A69C91",
"=X c #82A395",
"-X c #B2A790",
";X c #87B8B9",
":X c #82ACAE",
">X c #A9A7A6",
",X c #B6B5B4",
"<X c #D2AF8A",
"1X c #ECBD8B",
"2X c #E8B785",
"3X c #E4B698",
"4X c #CAB3AC",
"5X c #C69A90",
"6X c #8DC0BE",
"7X c #AED1BD",
"8X c #EBC39B",
"9X c #F3C997",
"0X c #FDD29C",
"qX c #F1C18E",
"wX c #CEC7AC",
"eX c #FADAA6",
"rX c #EEC9AC",
"tX c #FFE2AC",
"yX c #FFE9AE",
"uX c #FFEAB2",
"iX c #BCBDC0",
"pX c #92BCDB",
"aX c #9AC7C7",
"sX c #8ECED7",
"dX c #A8CCCB",
"fX c #B5D3D5",
"gX c #AECFD5",
"hX c #85E6DA",
"jX c #89C6E2",
"kX c #94C9E4",
"lX c #9ACEE7",
"zX c #98D1EC",
"xX c #A5D7EE",
"cX c #8BF2E5",
"vX c #ADE0DA",
"bX c #CAC8C6",
"nX c #D2D0CE",
"mX c #D8D7D5",
"MX c #CDD3CD",
"NX c #C7E1DF",
"BX c #E8E3D3",
/* pixels */
"            U                                                                                   ",
"          * =.-.;.B M $X                                    4 p                                 ",
"          - ;.*.=.S >X>X#X$X                      5 5 5 5 5 4 i T                               ",
"        @ 2 / =.5.iXbXmXbX>X%X$X#X      4 5 5 4 4 3 * * 5 7 & p T Y T                           ",
"      < N ..#XbXnXmXmX>X,XmXnX,X%X      5 & * 7 9 L K _ [ _ 7 J I I Y T                         ",
"    @ 1 N bXmXnXbX*X>.A A #X,XmXbXS     3 K ) ] [ +.+.@.~ W +.| t I I T T                       ",
"    , < S nX,X>Xr =.r . u V A #X#XS     p ' @.@.[ [ [  .5X<XO.| / i I T T                       ",
"    < , >XnXM , e *.R     . 1 A         $.4.X.o.+.+.X.9.4X3X' :.eX5.e Y I                       ",
"  X < < bX,X< , 6 y G y                 4.rXv.j E K _ } ' ' ` 8XuX5.e T I                       ",
"  @ , A mX#X@   O e G y                 <.} [ W K E E 9 _ } ` 8XyX5.4 T a                       ",
"  , . %XmXB     X 6 r G                 $.[ p p [ ) J . ) $.] 9XuXeX<X8 8                       ",
"    . S *X2       o e G e             ] $.} q 3 5 & & 3 J J 9 / <X0XeX=XU.hXhXhXhX              ",
"    @ + .         O 6 r H             ! +._ 5 % = = * - * > k d c U.;X X XhXhX XhXhX            ",
"                  O o e H w           U.M : k l 5 0 u u q B a.m.K.XX'.{.{.{.{.{.hXcXhX          ",
"                    - 7 i e   sXvXMXwXB.c v n b B p L P P.G.F.G.H.[.'.[.'.'.'.|. X XcX          ",
"                    . . 5 / wXBX9X6.7.P.c s.M.G.G.&X&X=XK.A.F.A.J./.K.K.B.N.N.b.'.+XoXwX        ",
"                    *X&X4XBXeX2X6.2X2X:.c H.S.S.D.A.A.A.A.S.S.A.`./.n b.b.n.m.m.N.[.|.yXeX      ",
"              3X8X8X3X<X4.1X1X1X1X2X1X4.c H.S.S.S.D.H.H.S.S.S.Z.J.[.N.n.M.n.n.n.b.G.7XeXyX      ",
"              1.@.^ ^ ^ Q 2X9XqXqX1XqX4.n D.S.S.S.S.S.S.S.S.S.Z.D..X!.N.m.N.&.%.%./ <XtXtXeX    ",
"              ' @.+.+.$.' 4.0X9XqX9X0X:.  D.S.S.S.S.S.S.S.S.S.Z.D..X].L...[ [ O.O.O.+.eXtXuXeX  ",
"              ` @.O.O.O.[ #.9X0X0X1X      S.S.S.S.S.S.S.S.S.S.Z.D..XoX/.  ' #.[ [ #.W 4.tXeXtX  ",
"                +.O.+.#.<.' 1X9X:.X       S.S.S.S.S.S.S.S.S.S.S.D..X+X].    ,.O.O.O.+.~ 1XtXuX  ",
"                ] [ [ ] ] K ( u 4         S.S.S.S.S.S.S.S.S.S.Z.D..X+X.X    [ ,.+.+.$.$.,.eXtX  ",
"                              % w         S.S.S.S.S.S.S.S.S.S.Z.D.oX+X.X      +.,.3.,.1.3.6.eX  ",
"                                          S.S.S.S.S.S.S.S.S.S.S.D.oX@X+X        1.8.2.2.2.2.2X  ",
"                                          T.S.S.F.F.C.C.V.V.S.Z.D.+X].oX          1.            ",
"                                          V.V.V.k.k.h.h.h.j.V.C.S.!.c.c.                        ",
"                                          j.j.j.j.j.h.j.j.V.j.V.L.x.x.x.                        ",
"                                          h.k.a.p.v V.R.R.R.R.R.l.x.f.z.                        ",
"                                            ; s $ p.E.E.E.E.R.E.g.f.g.                          ",
"                                            g g g W.Q.W.W.E.E.l.d.f.g.f.                        ",
"                                            g s Y._.~.~.~.Q.Q.f.d.d.d.                          ",
"                                              s.).^.~.~.~.^.c.y.d.d.r.                          ",
"                                              OXOX^.^.^.).^.u.y.u.u.g k.                        ",
"                                              zXjX}.(.(.}.c.w.u.y.e.v h.;X                      ",
"                                            kXkXkXjXjXjX(.0.0.e.i.g p.l.;X6X                    ",
"                                          kXxXlXlXkXkXlXI.9.e.t.q.; a.k.U.;X                    ",
"                                          xXxXlXlXlXlXpXw.0.0.t.h O d s.aX                      ",
"                                        sXlXlXgXgXfXNXI.9.y.0.0.f l l x P.                      ",
"                                      :XaXaXdXdXfXNXfXz r.e.t.q.                                ",
"                                      ;XaXaXdXdXgXfXP.x F b e.                                  ",
"                                    P.P.D D Z V B 1 z C m C b                                   ",
"                                    . . . . . . . . l C m C                                     ",
"                                      : : @ @ @ @ + : m C m                                     ",
"                                      + + + + + + # X z C                                       ",
"                                        + + + + + # X f m                                       ",
"                                        + # # # # + + :                                         ",
"                                                                                                "
};
