/* XPM */
static char *_075c30aaf68436698a16053aed3cb5f[] = {
/* columns rows colors chars-per-pixel */
"48 48 159 2 ",
"   c None",
".  c #252020",
"X  c #313332",
"o  c #573400",
"O  c #5C3F11",
"+  c #4F3027",
"@  c #593A23",
"#  c #4E3439",
"$  c #6B4408",
"%  c #794F0F",
"&  c #775100",
"*  c #7F5900",
"=  c #79500F",
"-  c #6D4D1C",
";  c #6F501D",
":  c #765111",
">  c #7B5414",
",  c #77551E",
"<  c #7C5519",
"1  c #5E4936",
"2  c #674921",
"3  c #6A4C26",
"4  c #664D28",
"5  c #714E2B",
"6  c #6E532A",
"7  c #775524",
"8  c #7A5723",
"9  c #7D5A23",
"0  c #775729",
"q  c #785728",
"w  c #77582B",
"e  c #7B5C2C",
"r  c #604437",
"t  c #61443D",
"y  c #734F30",
"u  c #6E5435",
"i  c #745634",
"p  c #795533",
"a  c #765A34",
"s  c #7B5D31",
"d  c #705738",
"f  c #745D3A",
"g  c #7C5E39",
"h  c #7E602F",
"j  c #7F6135",
"k  c #7D623B",
"l  c #4C4A45",
"z  c #4A454D",
"x  c #584644",
"c  c #6C4D42",
"v  c #715041",
"b  c #776455",
"n  c #5C5E61",
"m  c #726C6E",
"M  c #865E00",
"N  c #885B12",
"B  c #855B1C",
"V  c #876000",
"C  c #896200",
"Z  c #8B650B",
"A  c #8B6614",
"S  c #8B6619",
"D  c #8C681D",
"F  c #835E25",
"G  c #815F2A",
"H  c #866025",
"J  c #896223",
"K  c #84622D",
"L  c #88652E",
"P  c #8E6B2B",
"I  c #926F2A",
"U  c #93712D",
"Y  c #846332",
"T  c #896733",
"R  c #8B6933",
"E  c #82653D",
"W  c #87693A",
"Q  c #8B6B3B",
"!  c #906F35",
"~  c #85713E",
"^  c #8E753C",
"/  c #927034",
"(  c #93743C",
")  c #98773E",
"_  c #92793E",
"`  c #99793E",
"'  c #8E6F41",
"]  c #8D7343",
"[  c #8E7841",
"{  c #87704B",
"}  c #937545",
"|  c #947B44",
" . c #9C7D47",
".. c #957648",
"X. c #977B48",
"o. c #987949",
"O. c #8A7756",
"+. c #86725E",
"@. c #9A7E55",
"#. c #9B7F58",
"$. c #897C6E",
"%. c #968046",
"&. c #9C8147",
"*. c #9D8449",
"=. c #9C8B4F",
"-. c #9E8256",
";. c #9E8D51",
":. c #96825F",
">. c #A58647",
",. c #A88743",
"<. c #AA8947",
"1. c #A38448",
"2. c #A68849",
"3. c #A98949",
"4. c #A18E51",
"5. c #A0845A",
"6. c #A49354",
"7. c #A99656",
"8. c #AB9857",
"9. c #A8915A",
"0. c #AE9B59",
"q. c #B39D53",
"w. c #B19E5A",
"e. c #B5A05C",
"r. c #9F8563",
"t. c #958774",
"y. c #A08665",
"u. c #A28966",
"i. c #A58C69",
"p. c #A9906D",
"a. c #AB9474",
"s. c #A19679",
"d. c #898B8F",
"f. c #939391",
"g. c #B7A794",
"h. c #B8A794",
"j. c #CFC5BB",
"k. c #CFC6BB",
"l. c #CEC6BE",
"z. c #D0C6BB",
"x. c #D1C8BE",
"c. c #D2C9BF",
"v. c #D3C9BE",
"b. c #D3CABF",
"n. c #D3CAC1",
"m. c #D2CAC2",
"M. c #D4CBC2",
"N. c #D5CCC2",
"B. c #D6CEC6",
"V. c #D7CFC6",
"C. c #D7CFC5",
"Z. c #D8CFC5",
"A. c #F8F7F5",
"S. c #F8F7F6",
"D. c #FBFAFA",
"F. c #FAF9F8",
"G. c #FCFBFA",
"H. c #FDFDFC",
"J. c white",
/* pixels */
"                      J 0.7.;.4.;.4.;.7.e.w.w.w.e.7.;.w.w.w.e.7.;.6._ =                         ",
"                      J 0.4.} | | | | %.*.*.*.*.*. .| *.*.*.*.%.| | R :                         ",
"                      J w.*.G L T Q Q Q W Q T L L T Q W W W Q T L L F <                         ",
"                      J w.1.L ..P M & * C M P ....P M C C C M P ..' Y >                         ",
"                      9 7.| s P h.B.l.m.c.B.g.! ! g.B.c.m.c.B.g.P k 9 <                         ",
"                      - ;.~ d M B.J.J.J.J.J.B.A Z B.J.J.J.J.J.B.M i : <                         ",
"                      B @ 3 E M c.J.J.J.G.J.N.) D c.J.G.J.G.J.N.I E 9 <                         ",
"                      9 m b Y M B.J.  J.J.J.B.) S m.J.J.J.J.J.Z.U E 9 <                         ",
"                      w f.$.e M M.J.    J.J.c.) D j.J.S.F.S.J.c.U E 9 <                         ",
"                      J w.%.0 } #.u.u.p.a.a.i.-...#.u.a.i.y.a.i.-.j 9 <                         ",
"                      9 7.| q ..( P o.} ( ( o.@...( P ) / P ( o.o.s 9 <                         ",
"                      ; ;.[ w } #.u.r.y.r.y.#.} } #.u.r.y.y.y.#.( s 9 <                         ",
"                      J w.| u C j.J.S.F.S.J.j.D D j.J.S.F.S.J.z.V f , <                         ",
"                      J w.%.a M N.J.J.J.J.J.M.A A M.J.J.J.J.J.N.M k 8 <                         ",
"                      J w.%.g C c.J.F.J.F.J.c.S S c.J.F.J.F.J.c.M E 9 <                         ",
"                      J w.%.g M B.J.J.J.J.J.B.Z Z B.J.J.J.J.J.B.M E 9 <                         ",
"                      9 6.| s P h.B.c.m.c.B.g.! ! g.B.c.m.c.B.h.P j 9 <                         ",
"                      ; ;.[ q ..P M M M M M P ....P M M M M M P } e 9 <                         ",
"                      J w.| 2 T Q ' ' ' ' ' Q T T Q ' ' ' ' ' Q T 6 7 <                         ",
"                      J w.%.7 K K G G G K G L T K K G G K K K K K e 9 <                         ",
"                      J 0.*.L e e e e e e e Y T w e e e e a w w w T K <                         ",
"                      J e.2.K w ( 3.>.>.>.2.` L w ( 2.,.O.n l X . c p >                         ",
"                      , ] ~ L w ) 3.3.3.3.3.` L w ) 3.<.{ z x 1 4 t y <                         ",
"                      - # i R 0 ( 3.>.2.>.3.` L w ( 3.3.W + v E R r 5 <                         ",
"                      L d.$.S w ) 3.<.3.3.3.` L w ) 3.<.2.>.3.) L T F <                         ",
"                      H s.:.H w Q 1. .&. .1.) L w Q 1. .1.1.1.) L T K <                         ",
"                      J q.1.L e W ..} } } } Q T e W ..} } } } Q L T K <                         ",
"                      J w.*.K T T R T T T R T L T T R T T T T T T T K <                         ",
"                      9 6.%.L Y K K K K K G T Q K K K K K K K K K K F <                         ",
"                      ; =.| L e e e e e h e Q ..e e e e e e e e w e 9 <                         ",
"                      J 0.*.L w ( 3.>.>.>.>. .} w ( 3.>.>.>.2.) L e 9 <                         ",
"                      F w.*.L w ) 3.3.3.3.3.&.} w ) 3.3.3.3.3.` L e 9 <                         ",
"                      9 0.*.L w ( 3.>.3.2.3. .} w ( 3.>.3.>.3.` L e 9 <                         ",
"                      J w.2.L w ( 3.>.3.2.3.&.} w ( 3.>.3.2.3.` L e 9 <                         ",
"                      9 9.X.e w ( 3.2.3.3.3.&.} w ( 3.3.3.3.3.` L e 9 <                         ",
"                      - 5.} w w ( 3.>.>.>.>. .} e ( 3.>.>.>.3.` L e 9 <                         ",
"                      J 0.4.} ..o.o.o.o.o.o.......o.o.o.o.o.o.( L T H <                         ",
"                      J w.4.} Q W W W W W W ] ..Q W W W W W W T L T K <                         ",
"                      J 8.4.} e w e e e e w W ..w w e e e e e K T T K <                         ",
"                      B @ g o.w ( <.>.>.>.>. .} w ( 3.>.>.>.>. .} T H <                         ",
"                      8 m +.} w ) 3.3.3.3.3.&.} w ) 3.3.3.3.3.&.} T H <                         ",
"                      6 f.t.( s ( 3.>.2.2.3. .} w ( 3.>.2.2.3. .} T H <                         ",
"                      J 0.4.} w ( 3.3.3.3.3.1.} w ( 3.3.3.3.3.1.} T H <                         ",
"                      J 6.=.} W } 1. . . .&.o...W } 1. . . . .o.} T H <                         ",
"                      J =.%...o...} } } } } ....o...} } } } } ....R K <                         ",
"                      J w.8.;.;.;.4.4.4.4.4.4.;.;.4.4.4.4.4.4.4.;.6.( =                         ",
"                      , | _ ^ ^ ^ ^ ^ ^ ^ ^ ^ ^ ^ ^ ^ ^ ^ ^ ^ ^ ^ ` P >                         ",
"                      O o $ : % % = % = % = = = % = % % = % = % : N B <                         "
};
