/* XPM */
static char *_4d775cf1fd74605848eeadcf50fe574[] = {
/* columns rows colors chars-per-pixel */
"48 48 207 2 ",
"   c #516037",
".  c #5B6936",
"X  c #55643B",
"o  c #5B673E",
"O  c #5C6B3B",
"+  c #576834",
"@  c #606E3B",
"#  c #637C3D",
"$  c #565E43",
"%  c #585E46",
"&  c #5B5F4E",
"*  c #545848",
"=  c #5B5A53",
"-  c #5D5B5C",
";  c #555358",
":  c #615E5C",
">  c #566243",
",  c #5B6444",
"<  c #5C6A43",
"1  c #5C654B",
"2  c #5D6A4B",
"3  c #57634D",
"4  c #5E6353",
"5  c #5E6B53",
"6  c #616C44",
"7  c #60664C",
"8  c #626B4B",
"9  c #617140",
"0  c #657A46",
"q  c #6A7D46",
"w  c #63734C",
"e  c #667A4B",
"r  c #6A7C4C",
"t  c #69704E",
"y  c #616555",
"u  c #646B54",
"i  c #63645C",
"p  c #656A5B",
"a  c #696D5E",
"s  c #667354",
"d  c #697555",
"f  c #667851",
"g  c #6C7C53",
"h  c #66725C",
"j  c #6B745B",
"k  c #6D7B5B",
"l  c #707756",
"z  c #727D54",
"x  c #727D5D",
"c  c #787F5D",
"v  c #5E5A62",
"b  c #5B566A",
"n  c #615D64",
"m  c #655F69",
"M  c #5E6A61",
"N  c #5E6762",
"B  c #656363",
"V  c #696566",
"C  c #666A63",
"Z  c #6A6C65",
"A  c #66646A",
"S  c #69646B",
"D  c #6C6C6B",
"F  c #706C6D",
"G  c #667363",
"H  c #6C7363",
"J  c #6E7A63",
"K  c #6E726B",
"L  c #6F796B",
"P  c #667169",
"I  c #707564",
"U  c #737C64",
"Y  c #72746C",
"T  c #747B6B",
"R  c #797E6C",
"E  c #666173",
"W  c #6C6774",
"Q  c #6D6C72",
"!  c #6E6C7A",
"~  c #706C74",
"^  c #6C7271",
"/  c #737474",
"(  c #757973",
")  c #7A7C75",
"_  c #74757B",
"`  c #777A7C",
"'  c #7C7D7B",
"]  c #787778",
"[  c #6B8442",
"{  c #6C8947",
"}  c #6C834B",
"|  c #678444",
" . c #72854D",
".. c #758A4D",
"X. c #798E4E",
"o. c #708645",
"O. c #7C924F",
"+. c #6D8153",
"@. c #6E805A",
"#. c #738455",
"$. c #798657",
"%. c #758B53",
"&. c #7A8D54",
"*. c #75835A",
"=. c #79855B",
"-. c #758959",
";. c #7C8C5C",
":. c #779054",
">. c #7C9253",
",. c #7C925B",
"<. c #748262",
"1. c #7B8564",
"2. c #7C8B64",
"3. c #76826A",
"4. c #7A846B",
"5. c #7C8A6B",
"6. c #7E9262",
"7. c #7C916A",
"8. c #7C8374",
"9. c #7E8A73",
"0. c #7E827C",
"q. c #7E897B",
"w. c #7F9070",
"e. c #818D5C",
"r. c #819557",
"t. c #82935C",
"y. c #849A5B",
"u. c #818D63",
"i. c #80866C",
"p. c #828C6C",
"a. c #839363",
"s. c #849A62",
"d. c #84916B",
"f. c #88996B",
"g. c #818575",
"h. c #838C74",
"j. c #82857C",
"k. c #848B7C",
"l. c #898D7D",
"z. c #898F73",
"x. c #859273",
"c. c #8A9476",
"v. c #8B9976",
"b. c #86927B",
"n. c #8A927C",
"m. c #8E9C78",
"M. c #92967F",
"N. c #7A7783",
"B. c #7D7D82",
"V. c #817D84",
"C. c #857F8B",
"Z. c #7E8282",
"A. c #7F8289",
"S. c #838483",
"D. c #898585",
"F. c #858983",
"G. c #8A8B85",
"H. c #84858A",
"J. c #8A868B",
"K. c #868A8A",
"L. c #8B8B8B",
"P. c #908C8E",
"I. c #92878D",
"U. c #8C9283",
"Y. c #8F9B83",
"T. c #8F9985",
"R. c #8E928B",
"E. c #919487",
"W. c #929C84",
"Q. c #919389",
"!. c #959B8B",
"~. c #999D8F",
"^. c #8A8692",
"/. c #8D8C91",
"(. c #918D93",
"). c #8E9291",
"_. c #949394",
"`. c #999596",
"'. c #959992",
"]. c #9A9C93",
"[. c #96939C",
"{. c #9D959D",
"}. c #9B949C",
"|. c #9B9A9C",
" X c #979B9C",
".X c #A1979F",
"XX c #9CA48C",
"oX c #97A186",
"OX c #9DA394",
"+X c #9BA29C",
"@X c #9EA99B",
"#X c #A3A39B",
"$X c #A3AA96",
"%X c #A8B098",
"&X c #9692A2",
"*X c #9A95A2",
"=X c #9D9BA4",
"-X c #9D9EA9",
";X c #A197A0",
":X c #A19BA2",
">X c #A097A8",
",X c #A19AA9",
"<X c #A3A2A3",
"1X c #A9ADA2",
"2X c #A5A2A9",
"3X c #B2BAA5",
"4X c #A9A2B2",
/* pixels */
"}./._.'.OXW.1.g *.%.&.,.&.&.&.r.y.r.a.a.a.>.>.>.&.g T '.@XW.a.t.a.a.d.x.b.Y.b.<.@.-.,.y.:.{ | { ",
"/.H.L._.OXW.U w g #.&.&... .&.r.X.X.;.;.;.%.....0 w L R.+XY.a.,.u.2.p.h.h.n.h.k f +.:.,.:.| # # ",
"(.J.(._.!.T.3.k *.#.#.%.%...X.>.>.>.,.a.,.%.....e k 8.R.'.T.d.u.u.2.p.h.h.b.9.k f +.%.:.%.{ | | ",
":X_.`.L.G.G.h.x.d.#.0 } ,.y.>.......&.,.%.} q q d.h.F.K.K.k.p.2.p.4.9.h.h.k.9.k g g } }  .%.,.6.",
":X{.}.S.) 0.k.T.b.*.w +.,.s.,.....%.:.,.%.} 0 e v.U.K.Z.B.0.i.4.9.4.8.9.8.9.4.k g r 0 0 } -.6.f.",
";X{.{.K.' j.j.U.9.<.g +.;.,.&.%...%.,.6.;.#.r g h.G.K.A.Z.S.g.g.k.q.k.k.8.3.3.x *.+.r r #.2.7.5.",
".X{.{.P.J.K.j.k.8.U k g -.%.%. .0 | %.%.#.r e k 9.S.H.H.H.S.k.j.G.R.'.R.8.T 3.1.2.=.g e *.5.w.5.",
":X}.}.L.K.L.0.8.q.J s g 2.;.#.q 0 q %.%.%.+.k U 0.Z.A.A.S.S.j.j.G._.+XR.T a J 4.d.2.g w g 5.h.9.",
".X{.{.L.H.K.0.q.8.3.j k <.*.g #.g #.#.%.-.g d U 0.S.H.A.S.S.l.j.G.'.).R.( R J 3.5.<.*.k U 4.q.k.",
".X}.}.J.V.S.S.G.0.8.4.3.<.d *.m.v.x.2.-.#.g j L Z.Z.H.).'.T.l.l.G.F.F.F.F.G.k.b.h.p.5.4.9.9.k.q.",
":X{.}.D.' F.F.R.b.k.h.9.U u x oXXXW.p.*.#.g j L S.Z.F.].OXW.n.n.k.) ' ( R.F.U.h.h.h.h.h.k.k.F.F.",
":X}.`.D.j.l.j.k.k.h.8.8.4.I U U.!.U.1.#.=.*.J ( S.Z.k.U.M.v.d.z.n.U.U.j.L.G.G.8.4.8.k.n.k.k.j.F.",
":X`.`.G.j.l.T U U h.h.g.l.l.j.F.F.j.U g =.1.8.0.Z.F.k.<.*.*.;.=.4.XX$X].F.L.0.T I 8.U.!.U.j.0.S.",
":X X XR.U.n.U j k b.W.U.G.L.G.S.S.0.j t z 1.8.F.Z.F.8.d 9 q  .#.=.$X3X1XS.F.( K C ) Q.OX].G.F.L.",
"=X_._.G.l.k.U d x h.l.l.G.D.D.J.H.S.R l c i.j.F.S.F.4.g 0 [ ..&.d.XX%XOXF.S.0.S.( ' G.'.Q.j.j.F.",
"/.K.G.8.R 3.d w d d j U j.G.J.^.^./.l.g.z.b.k.F.k.9.1.;.&.X.&.,.&.#.<.k U H 0.K.`.R.G.F.8.I H U ",
"(.J.D.0.R 3.d w w g k x 8.F.S.J./.L.L.U.U.n.b.b.5.2.;.%.....>.y.O.o.# q g s T '.<X_.K.j.8.k e e ",
"I.D.D.) T 3.d w e g g k 4.0.S./.(./.K.F.k.k.x.x.2.6.:.%.%.....X...[ # q #.x 3.Q.[./.S.k.4.*.} { ",
"J.V.V./ Y T h s w w w s I Y ` L.L.S.( Y H J k k 2.6.,.:.:.%. .} } r w g 2.4.8.F.K.S.j.k.5.;.&.>.",
"C.N.B./ K T h s f w 8 d I D ( L._.J.) Y H J k k d.a.a.a.t.;. .q g +.g x p.h.j.F.S.S.S.F.h.d.6.s.",
"V._ ` / ^ L h h d f s j T Y ( J.P.S.( Y I U U k 2.2.2.;.;.*.z r e +.g g <.4.8.j.' ' B.Z.q.8.5.5.",
"( D Q D Z G 5 5 2 2 1 u Z Z S / F V i i p p y 4 u 8 8 8 8 6 < o O < < < 8 7 u H D D ^ ^ P P G G ",
"H p C C p p 3 1 % , % & p V B S V B : : : y y 4 % % % > % $ $ $ X X   X > $ % y p C C C N N N M ",
"k u j h h h 1 5 5 u y y D / ~ W ~ D V V B : i i i p a p p y p p u u 1 u s u y j a H H H h h G G ",
"a.u.2.2.5.5.<.h U !.$X].#X:X[.,X:X{.J.(.H.B - B L.G.L.].|.].'.].+X X X X|.1X~.H j x 2.u.2.a.6.;.",
"s.t.6.7.p.4.k s U XX#X].2X2X>X4X2X:X(._.J.V n S J.J.(.{.<X<X<X2X-X-X-X-X|.<X'.U s z ;.t.r.r.r.r.",
"r.&.;.d.x.5.U J 3.!.]._.{.=X*X,X=X*X/.(.J.S n S (.(._.}.{.|. X|.=X-X2X-X|.<X].g.x *.;.s.t.&.&.,.",
" .q #.d.v.x.h.k.g.U.Q.G.(.(.^.^./.J.B.J.C.m n S *X}.[.(./.L.H.S.S.L./././._.R.j.h.p.d.f.a.#.r #.",
"e w g p.n.U.G.R.G.R.G.F.L./.H.B.B.Z.` H.V.n v S {.{.}.(.L.K.S.0.g.l.G.D.K.L.L.G.U.l.c.v.p.k s j ",
"<.x U h.G.F.F.K.L.G.G.F.K.L.K.B.Z.S.0.L.S.B n S }.{.}.L.K.K.F.) g.M.Q.D.L.H.H.R.U.k.h.h.5.<.J U ",
"k.k.q.q.S.H.H.S.S.S.G.G.S.F.F.j.S.F.S.R.S.B : V `.|.`.G.j.j.) H T G.L.S.N.! _ H.L.k.3.U <.4.5.5.",
"R.R.K.Z.Z.H.H.Z.S.F.R.L.0.0.F.j.0.F.S.R.F.B - V _.|.`.F.' 0.( C Y D._.J.N.W ! /.R.k.U j k 4.h.h.",
"L.K.S.H.H.H.S.S.H.S.S.F.S.0.0.F.8.k.L./.S.V - B [.-X|.S.' 0.B.Q ) j.K.K.] D ( F.l.k.U H U g.8.F.",
"J.H.S.J.L.L.L.K.K.S.S.F.j.0.0.j.h.8.` _ / B - V [.*X_.) H ) H.A.Z.) / ) 0.0.j.j.k.h.u & p j.G.L.",
"S.S.S.K./././.L.K.S.S.j.q.0.8.8.c.5.K D D i - Z }.-X_.T p I Z.K.S.Y V D 0.G.F.8.j.8.4 * 4 G.R.L.",
"K.S.S.H.L.L.H.J.K.S.j.j.j.k.g.5.d.1.T ) ( B = i [.=X_.) j x 8.j.j.( / ( 0.S.S.j.j.g.p 4 Z G.H.H.",
"K.S.S.S.H.H.H.H.H.S.q.j.k.k.h.p.u.u.h.G.j.C = i L.(.G.i.c 1.h.h.j.j.F.S.S.H.F.F.F.j.Z H K ` / ` ",
"F.' ' S.S.S.H.H.Z.j.j.k.h.c.x.p.e.u.n.Q.F.C = B K.L.k.<.=.e.p.h.g.j.S.S.L./.K.S.F.j.K Y D Q A _ ",
"F.j.S.S.H.S.B.B.' q.l.h.z.d.d.u.e.u.l.U.j.B = Z /.L.l.1.$.e.u.5.g.j.j.S.L./.K.Z.S.F.( ( / ` _ B.",
"L.G.G.L.K.S.] / ( 0.k.h.p.d.u.;.e.2.h.R.F.C = V /./.U.p.e.e.u.2.h.l.G.K.L./.L.H.B.K.0.0.' /.J.J.",
"Q.G.R.L.R.L./ Z T k.n.x.d.2.;.;.e.p.U.K.K.V - B /./.l.z.e.&.;.2.h.l.F.F.L./.L.S.S.S.0.0.F.L._./.",
"R.F.G.F.G.G.( T R k.c.x.d.u.u.d.u.i.L.L.J.B v A /.L.G.z.a.t.a.p.h.U.Q.L.K.K.L.L.H.S.F.F.F.F.F.F.",
"( Y / K L R U T U 4.1.<.2.2.2.d.v.U.|.=X*XW n D _ _ T U *.&.*.<.U h.U.F.( Q ] ' S.' 0.j.0.T Y Y ",
"K D Y Z H T 3.p.1.p.2.2.d.d.d.v.c.G.|.=X&XA ; - ~ / T <.;.;.2.5.4.b.Q.F.( Q ( Z.G.j.j.l.j.I H T ",
"( ( ) H j U x <.*.=.*.*.2.2.1.p.n.G.[.&X[.Q B V / / T U #.#.=.<.<.p.h.g.( / ] Z.j.) 8.g.R H j U ",
"S.0.8.a 1 7 < 6 O 6 O O w 2 2 s Z V Q E ! - - i B i y 8 O O < , 7 7 u p C C V D D p p u y 1 1 u ",
").K.j.a , < o O . O + + < , , u a V E b S n p p i y 7 < . + X > 1 > % y C Z Z Z Z p y 7 1 1 1 7 ",
"L.F.0.p , 6 O @ @ @ O O < , 2 H Z D ! b W V p y p p 7 6 O O < 2 8 7 1 p H D D Z Z a u 1 7 7 7 1 "
};
