/* XPM */
static char *ed142cbb950d4e92cc3d618c20233742Fx1RTejsK1eonD5j[] = {
/* columns rows colors chars-per-pixel */
"48 48 199 2 ",
"   c None",
".  c #010303",
"X  c #180906",
"o  c #1C0B0B",
"O  c #1B010C",
"+  c #021A0C",
"@  c #1A1309",
"#  c #1A0B10",
"$  c #0D1A16",
"%  c #141313",
"&  c #1E1312",
"*  c #161817",
"=  c #151B1A",
"-  c #1C1C1C",
";  c #22070D",
":  c #2A0B0E",
">  c #250809",
",  c #25120D",
"<  c #28180A",
"1  c #361509",
"2  c #270C12",
"3  c #320F15",
"4  c #2C1613",
"5  c #251C15",
"6  c #2B1C14",
"7  c #221519",
"8  c #241B1B",
"9  c #2F1B1A",
"0  c #371617",
"q  c #331A15",
"w  c #39121B",
"e  c #341C1C",
"r  c #3C1D1D",
"t  c #391915",
"y  c #0E291A",
"u  c #1D221E",
"i  c #22231E",
"p  c #28261F",
"a  c #33241D",
"s  c #38271F",
"d  c #3B271A",
"f  c #151F20",
"g  c #241E21",
"h  c #2A1C21",
"j  c #311B21",
"k  c #3C1D22",
"l  c #162424",
"z  c #1C2423",
"x  c #122728",
"c  c #162E2C",
"v  c #192B28",
"b  c #242423",
"n  c #2C2423",
"m  c #252924",
"M  c #2B2C26",
"N  c #2D2629",
"B  c #252C2B",
"V  c #2C2C2B",
"C  c #272528",
"Z  c #322423",
"A  c #382020",
"S  c #332A23",
"D  c #3C2A24",
"F  c #332429",
"G  c #3B2529",
"H  c #322B2C",
"J  c #3B2A2A",
"K  c #253429",
"L  c #2E312C",
"P  c #273327",
"I  c #34342E",
"U  c #39332C",
"Y  c #353223",
"T  c #2F2D32",
"R  c #352F31",
"E  c #3B2D33",
"W  c #243533",
"Q  c #2A3432",
"!  c #243A3A",
"~  c #283A38",
"^  c #333333",
"/  c #3B3534",
"(  c #353935",
")  c #343A39",
"_  c #3A3B3B",
"`  c #3B3838",
"'  c #44151D",
"]  c #412113",
"[  c #472A1B",
"{  c #59301E",
"}  c #4B1D24",
"|  c #412324",
" . c #46262B",
".. c #422B29",
"X. c #4A2C2E",
"o. c #50252E",
"O. c #42322A",
"+. c #4D342E",
"@. c #533B2E",
"#. c #4B2B33",
"$. c #452A31",
"%. c #4D3C3B",
"&. c #463435",
"*. c #533336",
"=. c #5F3F30",
"-. c #52383C",
";. c #603B29",
":. c #29413E",
">. c #3C463D",
",. c #434134",
"<. c #5D4239",
"1. c #6A442F",
"2. c #644330",
"3. c #483F45",
"4. c #473A42",
"5. c #2E4646",
"6. c #324B44",
"7. c #3B4845",
"8. c #3D544B",
"9. c #434443",
"0. c #464847",
"q. c #4B4C4C",
"w. c #584A47",
"e. c #4D504F",
"r. c #45514F",
"t. c #5D4D57",
"y. c #4E5453",
"u. c #4A5755",
"i. c #535454",
"p. c #565857",
"a. c #5C5F5E",
"s. c #595857",
"d. c #60514E",
"f. c #645A5E",
"g. c #635854",
"h. c #61625F",
"j. c #7D6358",
"k. c #4A6762",
"l. c #5C6362",
"z. c #536363",
"x. c #5F7573",
"c. c #636664",
"v. c #686366",
"b. c #666C6A",
"n. c #6B6D6C",
"m. c #69646A",
"M. c #6C706F",
"N. c #687A76",
"B. c #737675",
"V. c #7B7474",
"C. c #737977",
"Z. c #757B7A",
"A. c #797D7B",
"S. c #7C7678",
"D. c #8F6F62",
"F. c #827A7C",
"G. c #69867B",
"H. c #7B807E",
"J. c #827B82",
"K. c #6C8A82",
"L. c #7A8582",
"P. c #738984",
"I. c #7E8887",
"U. c #7E8E8D",
"Y. c #7F9A93",
"T. c #818282",
"R. c #828585",
"E. c #8A8B8B",
"W. c #898F88",
"Q. c #918888",
"!. c #9B938B",
"~. c #998E92",
"^. c #8E9391",
"/. c #889E99",
"(. c #939695",
"). c #939D9C",
"_. c #989696",
"`. c #AB8D85",
"'. c #8EA39C",
"]. c #A0A79F",
"[. c #94ABA5",
"{. c #A5A9A8",
"}. c #BAAEB2",
"|. c #AEBEB4",
" X c #AEB4B2",
".X c #B6BAB9",
"XX c #BCC0BF",
"oX c #B9C2C1",
"OX c #CCCDCD",
"+X c #D6CDD2",
"@X c #D6D4D7",
"#X c #D9D9D9",
"$X c #DCE0DF",
"%X c #E3E2E4",
"&X c #F7ECF0",
"*X c #ECF5F2",
"=X c #F8F3F5",
"-X c #FDFCFE",
";X c #F7F3F7",
/* pixels */
"                                                                                                ",
"                                                                                                ",
"                                                                                                ",
"                                    q.` V C V ^ V V ` ` ` ` 9.                                  ",
"                              ^ ^ ^ ^ V V ^ ^ V V V b - * * * V                                 ",
"                              ^ V ^ ^ ^ V V ^ V ^ ^ V - - b b b                                 ",
"                                ^ b z V V C V L C V V b * - V b                                 ",
"                                b 0.i.` C ^ _ V ^ V b b * * V ^                                 ",
"                                V e.L.9.- u A.c.- ^ V - * * ^ V                                 ",
"                                * . b B e.T.n.q.^ V b - - b V ^                                 ",
"                                  {.^.. c.E.a.u % * - - - % V b                                 ",
"                                  $XXX_ (.E.0.(.#Xb.q.* * b V ^                                 ",
"                                R.H.^.B.c.B.n.{.@XT.B.9.% * b V                                 ",
"                                H.Z.A.b.l.a.Z.R.n.B.m.p.. * V -                                 ",
"                            %XE.b.C.A.p.c.n.i.b.T.n.n.p.. - -                                   ",
"                          OXE.^ 9.H.A.y.b.l.q.m.E.b.b.q.% b - T.                                ",
"                        -Xv.^ H V ^ _ l.b.l.c.n.J.v.m.4.8 C B ) i.                              ",
"                        -Xi./ / C b g _ r.u.q.q.3.3._ g N ` B Q ` ^ ^                           ",
"                          _.^ R H V N L Q Q b N / N V V b H / ^ 9./ b                           ",
"                          -Xs.V N N g V ( ) ( ( ^ Q B m b b V / ^ N H                           ",
"                            _.g H F 7 n H V ( ^ B K v u b V ^ C H N n                           ",
"                            +XR n F j j F H / ( L u u m 8 Z / 8 & 7 f.                          ",
"                            =X9.F F  .w  .-.&.G S Z 5 4 k 3 : J Z # ~.                          ",
"                            =Xb * 8 $.; 2  .|  .A e e 0 } ' w #.j h }.                          ",
"                            -XT.p.7.% %.w.-.X.0 r  .r 0 } } o.*.Z F @X                          ",
"                              .X'.[.M.n.F.d.> | : *.D Z e > > 9 o h &X                          ",
"                              #X/.Y.P.'.|.(.%...4 D M m >.c.A.h.e.S.=X                          ",
"                              ;XU.P.8.N.|.].g.e %.&.K y 8.G.'.'.M.E.%X                          ",
"                                -X%Xp.y.A.S.d.4 a S K + 6.G.K.K.W..X-X                          ",
"                                  ;Xt.7 n 8 X 6 , Z I $ L./.N.k.L. X                            ",
"                                  +X4.F F U n n & J J Z Q.(.N.x.N.).                            ",
"                                  @X&.E E n - M p G ..&.O S.).8.l.*X                            ",
"                                  %XT ^ B V u i 8 G  .#.; F.Z.r.C.                              ",
"                                  oXQ Q W l f b N G k e 2 f.b.I.OX                              ",
"                                  z.! W x c l = V / Z n N - 9.-X                                ",
"                                  ~ 5.! c c $ z - H V b M L h.                                  ",
"                                  7.:.6.:.x l = b C m m u i s.                                  ",
"                                  7.W ~ W B z V ` ( L p M p /                                   ",
"                                  / I b m m @ V.Q.S U S 5 5 S                                   ",
"                                  q O.O.Z 5 5 !.  6 a a a a o                                   ",
"                                `.1 t 1 4 6 5     s D 4 q , 9                                   ",
"                                D.{ [ ] > < @     w.+.<.| e                                     ",
"                                j.1.;.] d < Y       j.+.+.w.                                    ",
"                                <.2.=.@.s @ ,.                                                  ",
"                                  @.[ O.S n W.                                                  ",
"                                                                                                ",
"                                                                                                ",
"                                                                                                "
};
