/* XPM */
static char *d772bd3ceb7e450bad9b0a0522e87b33JG51fGI5O00M5cpt[] = {
/* columns rows colors chars-per-pixel */
"48 48 187 2 ",
"   c None",
".  c #020201",
"X  c #1D0F13",
"o  c #09191D",
"O  c #131413",
"+  c #151D1D",
"@  c #1C1C1B",
"#  c #1A1A17",
"$  c #220006",
"%  c #2E0000",
"&  c #280D09",
"*  c #2F040F",
"=  c #350100",
"-  c #3E0000",
";  c #32000E",
":  c #3A0A0A",
">  c #241107",
",  c #271309",
"<  c #2D160A",
"1  c #2E180C",
"2  c #2D1407",
"3  c #381200",
"4  c #361806",
"5  c #3A1A06",
"6  c #321709",
"7  c #341A0C",
"8  c #391E0F",
"9  c #280E16",
"0  c #320D17",
"q  c #231417",
"w  c #281217",
"e  c #2D1911",
"r  c #2B1219",
"t  c #221B1C",
"y  c #2D191D",
"u  c #23111B",
"i  c #391C12",
"p  c #33161D",
"a  c #331A1D",
"s  c #3B1A1D",
"d  c #341B17",
"f  c #2F2017",
"g  c #28211D",
"h  c #3C2114",
"j  c #35261E",
"k  c #2A1F21",
"l  c #351C22",
"z  c #3C1D23",
"x  c #002022",
"c  c #0C2424",
"v  c #0F2E2D",
"b  c #152424",
"n  c #1C2424",
"m  c #1F2827",
"M  c #152C2D",
"N  c #1C2B2B",
"B  c #1B3333",
"V  c #1B3A3A",
"C  c #242424",
"Z  c #2D2324",
"A  c #282827",
"S  c #262228",
"D  c #2C272A",
"F  c #232929",
"G  c #2C2C2C",
"H  c #352225",
"J  c #3B2324",
"K  c #3D2429",
"L  c #332D2D",
"P  c #3F2E25",
"I  c #2F312F",
"U  c #3C312C",
"Y  c #2E2F30",
"T  c #223333",
"R  c #213B3B",
"E  c #2C3132",
"W  c #323233",
"Q  c #353738",
"!  c #363838",
"~  c #3B3B3B",
"^  c #460000",
"/  c #4C1F00",
"(  c #42210F",
")  c #442515",
"_  c #4C2916",
"`  c #4B2B1C",
"'  c #47261A",
"]  c #502913",
"[  c #532E1B",
"{  c #5A331F",
"}  c #421E26",
"|  c #492521",
" . c #44232B",
".. c #4C252C",
"X. c #43292E",
"o. c #4D292F",
"O. c #462424",
"+. c #512F20",
"@. c #54252F",
"#. c #443026",
"$. c #5C3521",
"%. c #55392A",
"&. c #4E2A32",
"*. c #512C34",
"=. c #433537",
"-. c #5A323A",
";. c #603622",
":. c #1E5219",
">. c #3C403F",
",. c #335532",
"<. c #724129",
"1. c #3E3F40",
"2. c #264545",
"3. c #364747",
"4. c #3D4142",
"5. c #364846",
"6. c #384D4B",
"7. c #3F5554",
"8. c #424243",
"9. c #424945",
"0. c #454648",
"q. c #494B4B",
"w. c #4E4B47",
"e. c #4E4E50",
"r. c #425353",
"t. c #4B5151",
"y. c #485658",
"u. c #485E5D",
"i. c #4D5A56",
"p. c #515254",
"a. c #555758",
"s. c #565A5B",
"d. c #5B5A5B",
"f. c #45605F",
"g. c #63635F",
"h. c #5B5F60",
"j. c #4E6462",
"k. c #5C6263",
"l. c #596E6D",
"z. c #556964",
"x. c #5B7473",
"c. c #5E7F7D",
"v. c #626466",
"b. c #636768",
"n. c #656A6B",
"m. c #696B6D",
"M. c #6C6F70",
"N. c #6C7373",
"B. c #667C7B",
"V. c #6D7C7B",
"C. c #717376",
"Z. c #747679",
"A. c #747A7A",
"S. c #7A7D7F",
"D. c #5E807E",
"F. c #63817F",
"G. c #7A7F80",
"H. c #668684",
"J. c #6B8584",
"K. c #6C8B89",
"L. c #768484",
"P. c #7C8182",
"I. c #708988",
"U. c #7D8B8A",
"Y. c #7E938D",
"T. c #7C9795",
"R. c #7E9C9A",
"E. c #818587",
"W. c #828688",
"Q. c #88878C",
"!. c #8A888E",
"~. c #878D8C",
"^. c #81958F",
"/. c #8D918D",
"(. c #8D8A91",
"). c #849E9D",
"_. c #929A9B",
"`. c #9AA59A",
"'. c #8BA4A3",
"]. c #8CA9A8",
"[. c #95A7A6",
"{. c #AAA9AA",
"}. c #A7B6B5",
"|. c #B7BEBE",
" X c #C2C9C1",
".X c #DCDBDD",
"XX c #D5D5D6",
/* pixels */
"                                                                                                ",
"                                                                                                ",
"                                                                                                ",
"                                @ @ C A G Y W Y G G A A A A A A                                 ",
"                                @ @ @ @ @ A A G A G G G G W W W G                               ",
"                              # C C @ @ @ A G G G W G G G W G G G                               ",
"                                A A @ @ @ A G G G A G G A @ A G A                               ",
"                                W A @ @ @ A G G W ~ W A Q d.~ A G                               ",
"                                G A @ @ @ A W @ v.S.C @ 0.E.p.A G                               ",
"                                G A @ @ @ A W W e.m.S.t.D S . @ G                               ",
"                                G G @ @ C @ O # @ s._.b.. /.{.d.                                ",
"                                G A @ @ @ e.m..X`.,.(.!.:. X.XC.                                ",
"                                A C @ O 4.C.Q.XX`.z.Z.m.A.~.G.v.                                ",
"                                C C @ . a.M.m.N.W.P.k.k.n.P.Z.P.                                ",
"                                @ C @ . e.m.N.E.m.p.b.n.s.C.S.n.^.                              ",
"                                C C C O p.m.m.E.v.t.b.b.s.A.A.0.W Y.                            ",
"                            W Q W G A @ 0.b.b.P.m.h.n.n.s.1.W A G W >.                          ",
"                          G W 8.W G W A @ ~ 4.8.q.q.t.q.~ C C A Q Q A                           ",
"                        A G G ~ Q W G A G A A Q G A G W G A G G I W G                           ",
"                        C A A W W W C C A A W Y Y Q ~ ~ A C A G Z K                             ",
"                          A A G L W A C C A A G ~ Q G G C t A Z s                               ",
"                          q X 9 l W A k Z C C G W Q ! G C y z p ..                              ",
"                          w w p  .q r p p t C G L U =.K H  .z K  .                              ",
"                            p a o.p l  .p a J i ) _ _ : * X.u 9 o                               ",
"                            l l -.X.z O.i s o.s 7 [ %.9.4.; 3.u.l.                              ",
"                            = = ^ - = 5 h J &.w K - i.K.x.N.[.'.'.                              ",
"                            d.w.g.N.l.5.M V K d | 9._.|.).J.T.T.                                ",
"                            U.V.'.].H.7.c G $.$./ j.[.}.H.r.J.x.                                ",
"                            L.U.B.K.F.6.+ T ' ) 3 y.F.K.7.=.                                    ",
"                            l.L.z.c.R.I.x V F & p $ y Z 0 @.                                    ",
"                            j.B.x.D.).U.f #.J w } D L K } -.                                    ",
"                              y.6.).V.% +.] | l H A v Y ..*.                                    ",
"                              j.r.J.B.= ` ` ' r n b N T E F                                     ",
"                                y.f.j.: a l  .z C b N B B V                                     ",
"                                  b + z p } o.A n + N N T R B                                   ",
"                                  N B Z z X.G c + + m N R 2.R                                   ",
"                                  g M b m M B N + + N R 2.2.2.                                  ",
"                                  8 g M B V V N + b N R V V N                                   ",
"                                  7 h b T I j e @ @ b m Z P `                                   ",
"                                  < 7 h h 5 4     < e h _ ) (                                   ",
"                                  < , 2 7 h h     < < 7 6 < 7                                   ",
"                                    8 ) ;.{ )     > , < h _ _ )                                 ",
"                                    ) $.{ )       1 > 7 _ $.<.$.                                ",
"                                                  7 1 ) [ ;.<.$.                                ",
"                                                    7 ) [ [ {                                   ",
"                                                                                                ",
"                                                                                                ",
"                                                                                                "
};
